<?xml version="1.0" standalone="no"?>
<!DOCTYPE svg PUBLIC "-//W3C//DTD SVG 20010904//EN"
 "http://www.w3.org/TR/2001/REC-SVG-20010904/DTD/svg10.dtd">
<svg version="1.0" xmlns="http://www.w3.org/2000/svg"
 width="180.000000pt" height="60.000000pt" viewBox="0 0 300.000000 96.000000"
 preserveAspectRatio="xMidYMid meet">
<metadata>
Created by potrace 1.10, written by Peter Selinger 2001-2011
</metadata>
<g transform="translate(0.000000,96.000000) scale(0.100000,-0.100000)"
fill="#fff" stroke="none">
<path d="M2095 696 c-11 -22 -34 -46 -59 -61 -29 -17 -53 -44 -80 -90 -38 -65
-50 -76 -59 -52 -4 8 -15 2 -32 -18 -15 -16 -56 -62 -91 -101 -48 -55 -81 -81
-142 -112 l-79 -41 -48 49 c-27 28 -56 50 -64 50 -7 0 -44 -24 -80 -53 -162
-131 -222 -163 -421 -223 -14 -4 -230 -10 -480 -14 l-455 -7 460 2 c444 1 463
2 533 23 111 34 217 92 332 181 57 45 108 81 114 81 5 0 29 -21 53 -46 l44
-46 -108 -47 c-99 -43 -229 -118 -220 -127 2 -3 28 6 58 20 30 13 80 29 111
35 52 11 63 10 130 -13 80 -27 171 -42 188 -31 7 4 0 15 -18 29 -32 23 -127
125 -121 129 2 1 35 18 73 37 67 34 152 111 224 203 22 28 31 33 36 22 10 -27
23 -16 64 53 25 41 55 77 78 92 21 14 49 41 62 60 l24 35 -6 -55 c-10 -81 -36
-124 -141 -237 -88 -96 -133 -158 -121 -170 8 -8 37 17 138 124 101 106 134
157 147 226 l7 42 23 -53 c18 -39 39 -64 86 -101 65 -51 122 -115 148 -166 14
-29 14 -31 -24 -75 -24 -28 -42 -41 -48 -35 -5 6 -21 39 -36 75 -46 110 -55
126 -86 149 -37 27 -47 21 -73 -49 -24 -61 -68 -105 -221 -220 -71 -53 -138
-107 -149 -118 -18 -20 -18 -22 -1 -28 26 -10 202 4 269 21 108 28 308 126
291 143 -3 3 -13 -2 -22 -10 -26 -23 -127 -72 -212 -102 -97 -35 -321 -60
-321 -36 0 6 48 45 107 88 189 137 236 182 268 256 l28 65 30 -21 c16 -12 38
-42 49 -67 83 -199 152 -287 242 -310 74 -18 136 -9 136 21 0 6 -46 58 -101
116 l-102 105 41 39 c23 21 48 38 57 38 8 0 31 -22 51 -50 19 -27 64 -71 98
-99 35 -27 83 -73 107 -101 59 -71 112 -100 175 -99 l49 2 -56 7 c-65 8 -98
29 -163 101 -25 28 -74 73 -108 100 -34 28 -73 67 -86 87 -49 74 -73 78 -129
26 -34 -32 -39 -34 -48 -19 -37 63 -100 136 -147 170 -42 30 -63 54 -84 98
-15 31 -32 56 -38 54 -5 -2 -15 -26 -21 -54 -7 -29 -20 -64 -30 -80 -26 -39
-217 -244 -223 -238 -8 8 27 53 119 151 51 54 100 116 110 138 23 53 34 129
21 152 -8 15 -12 12 -27 -20z m525 -624 c0 -15 -53 -24 -97 -16 -56 9 -117 48
-152 95 l-30 42 41 46 41 46 99 -101 c54 -56 98 -107 98 -112z m-947 3 c19
-13 16 -14 -34 -8 -30 3 -72 12 -94 20 -104 38 -140 38 -250 -1 -42 -15 45 30
145 75 l105 47 53 -59 c30 -33 63 -66 75 -74z"/>
</g>
</svg>
